<?xml version="1.0" encoding="UTF-8" standalone="no"?>
<svg
   viewBox="0 0 51 72"
   version="1.1"
   id="svg15057"
   sodipodi:docname="css-text.svg"
   inkscape:version="1.2.1 (9c6d41e410, 2022-07-14)"
   width="51"
   height="72"
   xmlns:inkscape="http://www.inkscape.org/namespaces/inkscape"
   xmlns:sodipodi="http://sodipodi.sourceforge.net/DTD/sodipodi-0.dtd"
   xmlns="http://www.w3.org/2000/svg"
   xmlns:svg="http://www.w3.org/2000/svg">
  <defs
     id="defs15061" />
  <sodipodi:namedview
     id="namedview15059"
     pagecolor="#ffffff"
     bordercolor="#000000"
     borderopacity="0.25"
     inkscape:showpageshadow="2"
     inkscape:pageopacity="0.0"
     inkscape:pagecheckerboard="0"
     inkscape:deskcolor="#d1d1d1"
     showgrid="false"
     inkscape:zoom="3.171875"
     inkscape:cx="79.29064"
     inkscape:cy="88.906404"
     inkscape:window-width="1920"
     inkscape:window-height="982"
     inkscape:window-x="-10"
     inkscape:window-y="-10"
     inkscape:window-maximized="1"
     inkscape:current-layer="svg15057" />
  <path
     fill="#131313"
     d="m 40.096959,3.4830211 h -4.149853 l 4.315645,4.6447056 V 10.33888 H 31.374062 V 7.7498184 h 4.315083 L 31.374062,3.1051128 V 0.89172906 h 8.722897 z m -10.485349,0 h -4.149853 l 4.315645,4.6447056 V 10.33888 H 20.888151 V 7.7498184 h 4.315645 L 20.888151,3.1051128 V 0.89172906 H 29.61161 Z M 19.229109,3.5889247 h -4.478065 v 4.0527606 h 4.478065 V 10.33888 H 11.567841 V 0.89172906 h 7.661268 z"
     id="path15043"
     style="stroke-width:0.559692" />
  <path
     fill="#1572b6"
     d="M 5.4655788,65.269366 0.9150148,14.651384 H 50.915015 l -4.554498,50.609622 -20.476131,5.630723 z"
     id="path15045"
     style="stroke-width:0.559692" />
  <path
     fill="#33a9dc"
     d="M 25.915858,66.588144 42.460757,62.038752 46.353211,18.79054 H 25.915858 Z"
     id="path15047"
     style="stroke-width:0.559692" />
  <path
     fill="#fff"
     d="m 25.915296,37.129128 h 8.282846 L 34.770827,30.77213 H 25.915296 V 24.563954 H 41.611565 L 41.46151,26.229426 39.923299,43.336747 H 25.915296 Z"
     id="path15049"
     style="fill:#000000;stroke-width:0.559692" />
  <path
     fill="#EBEBEB"
     d="m 25.95295,53.252103 -0.02754,0.0078 -6.971124,-1.867246 -0.446233,-4.951268 h -6.282666 l 0.877291,9.747583 12.821608,3.529931 0.02922,-0.0084 V 53.25206 Z"
     id="path15051"
     style="fill:#1a1a1a;stroke-width:0.559692" />
  <path
     fill="#fff"
     d="m 33.666485,43.074217 -0.754213,8.313984 -6.98124,1.868919 v 6.459 l 12.832286,-3.527144 0.09442,-1.049003 1.089168,-12.065756 z"
     id="path15053"
     style="fill:#000000;stroke-width:0.559692" />
  <path
     fill="#EBEBEB"
     d="m 25.937214,24.563954 v 6.207618 H 10.817563 l -0.125889,-1.39514 -0.284937,-3.147006 -0.150056,-1.665472 z m -0.02192,12.565732 v 6.208175 H 19.032407 L 18.907079,41.942722 18.62158,38.795157 18.471525,37.129686 Z"
     id="path15055"
     style="fill:#1a1a1a;stroke-width:0.559692" />
</svg>
