<?xml version="1.0" encoding="UTF-8" standalone="no"?>
<svg
   viewBox="0 0 52 72"
   version="1.1"
   id="svg147"
   sodipodi:docname="css.svg"
   width="52"
   height="72"
   inkscape:version="1.2.1 (9c6d41e410, 2022-07-14)"
   xmlns:inkscape="http://www.inkscape.org/namespaces/inkscape"
   xmlns:sodipodi="http://sodipodi.sourceforge.net/DTD/sodipodi-0.dtd"
   xmlns="http://www.w3.org/2000/svg"
   xmlns:svg="http://www.w3.org/2000/svg">
  <defs
     id="defs151" />
  <sodipodi:namedview
     id="namedview149"
     pagecolor="#ffffff"
     bordercolor="#000000"
     borderopacity="0.25"
     inkscape:showpageshadow="2"
     inkscape:pageopacity="0.0"
     inkscape:pagecheckerboard="0"
     inkscape:deskcolor="#d1d1d1"
     showgrid="false"
     inkscape:zoom="2.2428543"
     inkscape:cx="-9.5859993"
     inkscape:cy="108.34409"
     inkscape:window-width="1920"
     inkscape:window-height="982"
     inkscape:window-x="-10"
     inkscape:window-y="-10"
     inkscape:window-maximized="1"
     inkscape:current-layer="svg147" />
  <path
     fill="#1572b6"
     d="M 5.7305176,64.354067 1.1803726,1.352 H 51.180373 L 46.625703,64.344569 26.150051,71.352 Z"
     id="path135"
     style="stroke-width:0.502831" />
  <path
     fill="#33a9dc"
     d="M 26.180826,65.996005 42.726354,60.3333 46.618914,6.5029612 H 26.180826 Z"
     id="path137"
     style="stroke-width:0.502831" />
  <path
     fill="#ffffff"
     d="m 26.180826,29.328647 h 8.282947 l 0.572049,-7.91248 h -8.854996 v -7.727 h 15.696053 l -0.150253,2.073234 -1.538741,21.293247 H 26.180826 Z"
     id="path139"
     style="stroke-width:0.502831" />
  <path
     fill="#ebebeb"
     d="m 26.217936,49.396166 -0.0276,0.01003 -6.970945,-2.323519 -0.445782,-6.162717 h -6.282585 l 0.876629,12.132693 12.821778,4.392842 0.02851,-0.01003 z"
     id="path141"
     style="stroke-width:0.502831" />
  <path
     fill="#ffffff"
     d="m 33.93155,36.728824 -0.753982,10.347734 -6.981355,2.326313 v 8.039298 l 12.832186,-4.390049 0.09413,-1.305618 1.088885,-15.017678 z"
     id="path143"
     style="stroke-width:0.502831" />
  <path
     fill="#ebebeb"
     d="m 26.202097,13.689167 v 7.727 H 11.082618 l -0.125363,-1.736354 -0.285119,-3.917412 -0.149801,-2.073234 z m -0.02127,15.640598 v 7.727 h -6.883146 l -0.125362,-1.736354 -0.285573,-3.917412 -0.149347,-2.073234 z"
     id="path145"
     style="stroke-width:0.502831" />
</svg>
