<?xml version="1.0" encoding="UTF-8" standalone="no"?>
<svg
   viewBox="0 0 52 72"
   version="1.1"
   id="svg278"
   sodipodi:docname="html.svg"
   width="52"
   height="72"
   inkscape:version="1.2.1 (9c6d41e410, 2022-07-14)"
   xmlns:inkscape="http://www.inkscape.org/namespaces/inkscape"
   xmlns:sodipodi="http://sodipodi.sourceforge.net/DTD/sodipodi-0.dtd"
   xmlns="http://www.w3.org/2000/svg"
   xmlns:svg="http://www.w3.org/2000/svg">
  <defs
     id="defs282" />
  <sodipodi:namedview
     id="namedview280"
     pagecolor="#ffffff"
     bordercolor="#000000"
     borderopacity="0.25"
     inkscape:showpageshadow="2"
     inkscape:pageopacity="0.0"
     inkscape:pagecheckerboard="0"
     inkscape:deskcolor="#d1d1d1"
     showgrid="false"
     inkscape:zoom="3.171875"
     inkscape:cx="-15.921182"
     inkscape:cy="62.738916"
     inkscape:window-width="1920"
     inkscape:window-height="982"
     inkscape:window-x="-10"
     inkscape:window-y="-10"
     inkscape:window-maximized="1"
     inkscape:current-layer="svg278" />
  <path
     fill="#e44d26"
     d="M 5.3853306,64.033154 0.83495563,1.0304582 H 50.834956 l -4.555378,62.9931498 -20.475094,7.00685 z"
     id="path270"
     style="stroke-width:0.505323" />
  <path
     fill="#f16529"
     d="M 25.834956,65.674822 42.380037,60.012075 46.272756,6.1817279 h -20.4378 z"
     id="path272"
     style="stroke-width:0.505323" />
  <path
     fill="#ebebeb"
     d="m 25.834956,29.548561 h -8.283001 l -0.572151,-7.913024 h 8.855152 v -7.726624 h -15.69595 l 0.150087,2.07286 1.538168,21.293973 h 14.007695 z m 0,20.067774 -0.02774,0.0095 -6.970874,-2.324389 -0.445259,-6.161873 h -6.284111 l 0.876874,12.132294 12.82246,4.393878 0.02865,-0.0095 z"
     id="path274"
     style="stroke-width:0.505323" />
  <path
     fill="#ffffff"
     d="m 25.813125,29.548561 v 7.727185 h 7.707666 l -0.726331,10.021255 -6.981335,2.326072 v 8.039349 l 12.832466,-4.39051 0.09415,-1.305363 1.470856,-20.342883 0.152361,-2.075105 h -1.686436 z m 0,-15.639648 v 7.726624 h 15.119706 l 0.125528,-1.735992 0.28562,-3.917772 0.149633,-2.07286 z"
     id="path276"
     style="stroke-width:0.505323" />
</svg>
