<?xml version="1.0" standalone="no"?>
<!DOCTYPE svg PUBLIC "-//W3C//DTD SVG 20010904//EN"
 "http://www.w3.org/TR/2001/REC-SVG-20010904/DTD/svg10.dtd">
<svg version="1.0" xmlns="http://www.w3.org/2000/svg"
 width="500.000000pt" height="500.000000pt" viewBox="0 0 500.000000 500.000000"
 preserveAspectRatio="xMidYMid meet">

<g transform="translate(0.000000,500.000000) scale(0.100000,-0.100000)"
fill="#000000" stroke="none">
<path d="M2290 4984 c-194 -23 -469 -83 -625 -136 -101 -34 -343 -147 -436
-204 -392 -237 -719 -583 -929 -979 -55 -102 -133 -285 -160 -372 -31 -99 -96
-403 -111 -513 -19 -139 -16 -440 5 -580 52 -346 144 -631 288 -895 76 -140
206 -321 327 -458 280 -317 696 -587 1087 -705 123 -37 294 -76 439 -99 151
-24 508 -24 650 0 123 21 305 61 405 89 179 49 449 174 600 277 52 35 118 80
145 99 159 107 399 347 519 517 170 241 288 467 355 675 50 160 96 361 117
520 22 171 14 529 -15 675 -72 364 -116 498 -247 756 -58 114 -219 359 -285
434 -192 217 -316 331 -510 466 -183 128 -422 248 -624 312 -99 31 -308 81
-435 102 -91 16 -477 29 -560 19z m50 -905 c180 -30 312 -77 520 -186 173 -91
369 -232 477 -345 l42 -43 -67 -45 c-168 -112 -382 -321 -382 -373 0 -36 96
-203 143 -250 60 -59 151 -121 223 -153 73 -32 78 -30 18 7 -27 17 -83 66
-126 109 -59 60 -86 97 -117 162 -23 46 -41 94 -41 105 0 25 244 265 353 347
154 114 311 206 422 245 l58 20 36 -29 c56 -45 153 -148 205 -220 186 -252
292 -560 303 -876 9 -230 -17 -395 -99 -644 -103 -314 -307 -623 -518 -785
-72 -55 -106 -58 -173 -15 -74 47 -76 61 -29 171 119 273 216 611 229 794 13
183 -69 333 -183 335 -82 1 -139 -52 -211 -193 -142 -282 -223 -542 -329
-1047 -19 -91 -36 -175 -39 -187 -8 -35 -62 -45 -268 -50 -158 -5 -199 -3
-252 12 l-63 17 -5 341 c-6 360 -10 397 -54 542 -24 79 -34 97 -78 141 -78 79
-146 84 -224 18 -119 -103 -169 -348 -157 -782 l6 -233 -53 -24 c-112 -51
-396 -56 -537 -8 l-54 18 -32 175 c-18 96 -44 222 -57 280 -75 315 -95 394
-153 600 -59 209 -142 482 -143 470 -1 -3 -8 -42 -16 -88 -12 -73 -30 -273
-38 -427 l-2 -50 -29 38 c-32 42 -75 161 -102 287 -27 124 -28 593 -1 690 53
188 145 388 256 550 74 109 265 306 356 367 318 214 605 275 985 212z"/>
</g>
</svg>
