<svg width="370" height="234" xmlns="http://www.w3.org/2000/svg" role="img">
  <title>Top Languages — ValerioGc</title>
  <desc>Most used languages by repository byte count</desc>
  <rect width="370" height="234" rx="12" fill="#161B22" stroke="#30363D" stroke-width="1"/>
  <text x="20" y="28" font-family="-apple-system, BlinkMacSystemFont, 'Segoe UI', Helvetica, Arial, sans-serif" font-size="15" font-weight="600" fill="#9D79F2">Top Languages</text>
  <line x1="0" y1="38" x2="370" y2="38" stroke="#30363D" stroke-width="0.5"/>
  
    <circle cx="20" cy="58" r="5" fill="#41b883"/>
    <text x="34" y="63" font-family="-apple-system, BlinkMacSystemFont, 'Segoe UI', Helvetica, Arial, sans-serif" font-size="12" fill="#E6EDF3">Vue</text>
    <rect x="155" y="52" width="155" height="11" rx="5" fill="#21262D"/>
    <rect x="155" y="52" width="54" height="11" rx="5" fill="#41b883" opacity="0.85"/>
    <text x="318" y="63" font-family="-apple-system, BlinkMacSystemFont, 'Segoe UI', Helvetica, Arial, sans-serif" font-size="11" fill="#8B949E">35%</text>
    <circle cx="20" cy="80" r="5" fill="#4F5D95"/>
    <text x="34" y="85" font-family="-apple-system, BlinkMacSystemFont, 'Segoe UI', Helvetica, Arial, sans-serif" font-size="12" fill="#E6EDF3">PHP</text>
    <rect x="155" y="74" width="155" height="11" rx="5" fill="#21262D"/>
    <rect x="155" y="74" width="45" height="11" rx="5" fill="#4F5D95" opacity="0.85"/>
    <text x="318" y="85" font-family="-apple-system, BlinkMacSystemFont, 'Segoe UI', Helvetica, Arial, sans-serif" font-size="11" fill="#8B949E">29.3%</text>
    <circle cx="20" cy="102" r="5" fill="#b07219"/>
    <text x="34" y="107" font-family="-apple-system, BlinkMacSystemFont, 'Segoe UI', Helvetica, Arial, sans-serif" font-size="12" fill="#E6EDF3">Java</text>
    <rect x="155" y="96" width="155" height="11" rx="5" fill="#21262D"/>
    <rect x="155" y="96" width="21" height="11" rx="5" fill="#b07219" opacity="0.85"/>
    <text x="318" y="107" font-family="-apple-system, BlinkMacSystemFont, 'Segoe UI', Helvetica, Arial, sans-serif" font-size="11" fill="#8B949E">13.4%</text>
    <circle cx="20" cy="124" r="5" fill="#3178c6"/>
    <text x="34" y="129" font-family="-apple-system, BlinkMacSystemFont, 'Segoe UI', Helvetica, Arial, sans-serif" font-size="12" fill="#E6EDF3">TypeScript</text>
    <rect x="155" y="118" width="155" height="11" rx="5" fill="#21262D"/>
    <rect x="155" y="118" width="14" height="11" rx="5" fill="#3178c6" opacity="0.85"/>
    <text x="318" y="129" font-family="-apple-system, BlinkMacSystemFont, 'Segoe UI', Helvetica, Arial, sans-serif" font-size="11" fill="#8B949E">8.9%</text>
    <circle cx="20" cy="146" r="5" fill="#e34c26"/>
    <text x="34" y="151" font-family="-apple-system, BlinkMacSystemFont, 'Segoe UI', Helvetica, Arial, sans-serif" font-size="12" fill="#E6EDF3">HTML</text>
    <rect x="155" y="140" width="155" height="11" rx="5" fill="#21262D"/>
    <rect x="155" y="140" width="7" height="11" rx="5" fill="#e34c26" opacity="0.85"/>
    <text x="318" y="151" font-family="-apple-system, BlinkMacSystemFont, 'Segoe UI', Helvetica, Arial, sans-serif" font-size="11" fill="#8B949E">4.2%</text>
    <circle cx="20" cy="168" r="5" fill="#f7523f"/>
    <text x="34" y="173" font-family="-apple-system, BlinkMacSystemFont, 'Segoe UI', Helvetica, Arial, sans-serif" font-size="12" fill="#E6EDF3">Blade</text>
    <rect x="155" y="162" width="155" height="11" rx="5" fill="#21262D"/>
    <rect x="155" y="162" width="5" height="11" rx="5" fill="#f7523f" opacity="0.85"/>
    <text x="318" y="173" font-family="-apple-system, BlinkMacSystemFont, 'Segoe UI', Helvetica, Arial, sans-serif" font-size="11" fill="#8B949E">3.5%</text>
    <circle cx="20" cy="190" r="5" fill="#c6538c"/>
    <text x="34" y="195" font-family="-apple-system, BlinkMacSystemFont, 'Segoe UI', Helvetica, Arial, sans-serif" font-size="12" fill="#E6EDF3">SCSS</text>
    <rect x="155" y="184" width="155" height="11" rx="5" fill="#21262D"/>
    <rect x="155" y="184" width="3" height="11" rx="5" fill="#c6538c" opacity="0.85"/>
    <text x="318" y="195" font-family="-apple-system, BlinkMacSystemFont, 'Segoe UI', Helvetica, Arial, sans-serif" font-size="11" fill="#8B949E">2.1%</text>
  <line x1="0" y1="212" x2="370" y2="212" stroke="#30363D" stroke-width="0.5"/>
  <text x="185" y="226" font-family="-apple-system, BlinkMacSystemFont, 'Segoe UI', Helvetica, Arial, sans-serif" font-size="10" text-anchor="middle" fill="#8B949E">Updated 07 Jun 2026 · generated by GitHub Actions</text>
</svg>