<?xml version="1.0" encoding="UTF-8" standalone="no"?>
<svg
   viewBox="0 0 128 128"
   version="1.1"
   id="svg11006"
   sodipodi:docname="apple-black.svg"
   inkscape:version="1.2.1 (9c6d41e410, 2022-07-14)"
   xmlns:inkscape="http://www.inkscape.org/namespaces/inkscape"
   xmlns:sodipodi="http://sodipodi.sourceforge.net/DTD/sodipodi-0.dtd"
   xmlns:xlink="http://www.w3.org/1999/xlink"
   xmlns="http://www.w3.org/2000/svg"
   xmlns:svg="http://www.w3.org/2000/svg">
  <defs
     id="defs11010">
    <linearGradient
       inkscape:collect="always"
       id="linearGradient11881">
      <stop
         style="stop-color:#ffffff;stop-opacity:0.43568465;"
         offset="0"
         id="stop11877" />
      <stop
         style="stop-color:#ffffff;stop-opacity:0;"
         offset="1"
         id="stop11879" />
    </linearGradient>
    <linearGradient
       inkscape:collect="always"
       xlink:href="#linearGradient11881"
       id="linearGradient11883"
       x1="18.753332"
       y1="128.95039"
       x2="98.15741"
       y2="22.388813"
       gradientUnits="userSpaceOnUse"
       gradientTransform="translate(2.5221675,5.3596059)" />
  </defs>
  <sodipodi:namedview
     id="namedview11008"
     pagecolor="#ffffff"
     bordercolor="#000000"
     borderopacity="0.25"
     inkscape:showpageshadow="2"
     inkscape:pageopacity="0.0"
     inkscape:pagecheckerboard="0"
     inkscape:deskcolor="#d1d1d1"
     showgrid="false"
     inkscape:zoom="3.171875"
     inkscape:cx="24.591133"
     inkscape:cy="46.975369"
     inkscape:window-width="1920"
     inkscape:window-height="982"
     inkscape:window-x="-10"
     inkscape:window-y="-10"
     inkscape:window-maximized="1"
     inkscape:current-layer="svg11006" />
  <path
     d="M97.905 67.885c.174 18.8 16.494 25.057 16.674 25.137-.138.44-2.607 8.916-8.597 17.669-5.178 7.568-10.553 15.108-19.018 15.266-8.318.152-10.993-4.934-20.504-4.934-9.508 0-12.479 4.776-20.354 5.086-8.172.31-14.395-8.185-19.616-15.724C15.822 94.961 7.669 66.8 18.616 47.791c5.438-9.44 15.158-15.417 25.707-15.571 8.024-.153 15.598 5.398 20.503 5.398 4.902 0 14.106-6.676 23.782-5.696 4.051.169 15.421 1.636 22.722 12.324-.587.365-13.566 7.921-13.425 23.639M82.272 21.719c4.338-5.251 7.258-12.563 6.462-19.836-6.254.251-13.816 4.167-18.301 9.416-4.02 4.647-7.54 12.087-6.591 19.216 6.971.54 14.091-3.542 18.43-8.796"
     id="path11004"
     style="stroke:#ffffff;stroke-opacity:1;stroke-width:0.5;stroke-dasharray:none" />
  <path
     d="m 97.562225,67.574189 c 0.174,18.8 16.494005,25.057 16.674005,25.137 -0.138,0.44 -2.607,8.916001 -8.597,17.669001 -5.178,7.568 -10.553005,15.108 -19.018005,15.266 -8.318,0.152 -10.993,-4.934 -20.504,-4.934 -9.508,0 -12.479,4.776 -20.354,5.086 -8.172,0.31 -14.395,-8.185 -19.616,-15.724 -10.668,-15.424001 -18.8209995,-43.585001 -7.874,-62.594001 5.438,-9.44 15.158,-15.417 25.707,-15.571 8.024,-0.153 15.598,5.398 20.503,5.398 4.902,0 14.106,-6.676 23.782,-5.696 4.051,0.169 15.421005,1.636 22.722005,12.324 -0.587,0.365 -13.566005,7.921 -13.425005,23.639 m -15.633,-46.166 c 4.338,-5.251 7.258,-12.5630002 6.462,-19.8360002 -6.254,0.251 -13.816,4.167 -18.301,9.4160002 -4.02,4.647 -7.54,12.087 -6.591,19.216 6.971,0.54 14.091,-3.542 18.43,-8.796"
     id="path11004-6"
     style="fill:url(#linearGradient11883);fill-opacity:1;stroke:#ffffff;stroke-width:0;stroke-dasharray:none;stroke-opacity:1" />
</svg>
